<?xml version="1.0" standalone="no"?>
<!DOCTYPE svg PUBLIC "-//W3C//DTD SVG 20010904//EN"
 "http://www.w3.org/TR/2001/REC-SVG-20010904/DTD/svg10.dtd">
<svg version="1.0" xmlns="http://www.w3.org/2000/svg"
 width="330.000000pt" height="150.000000pt" viewBox="0 0 330.000000 150.000000"
 preserveAspectRatio="xMidYMid meet">

<g transform="translate(0.000000,150.000000) scale(0.100000,-0.100000)"
fill="#000000" stroke="none">
<path d="M773 1177 c-42 -10 -43 -11 -43 -53 0 -37 -3 -43 -22 -46 -15 -2 -23
-10 -23 -23 0 -13 8 -21 23 -23 19 -3 22 -9 22 -48 l0 -44 55 0 55 0 0 125 c0
94 -3 125 -12 124 -7 -1 -32 -6 -55 -12z"/>
<path d="M870 1055 l0 -25 168 2 c159 3 167 4 167 23 0 19 -8 20 -167 23
l-168 2 0 -25z"/>
<path d="M580 1017 l0 -58 -47 36 c-25 19 -47 34 -49 32 -2 -1 7 -35 18 -75
13 -45 26 -72 35 -72 10 0 12 7 9 20 -3 11 -9 30 -12 41 -6 20 -4 20 30 -6
l36 -27 0 33 0 34 22 -35 c29 -47 28 -46 38 -30 8 12 10 10 10 -7 0 -14 6 -23
16 -23 13 0 15 7 9 43 -9 52 -13 57 -30 33 -13 -16 -17 -12 -49 50 l-35 69 -1
-58z"/>
<path d="M977 963 c-44 -33 -49 -34 -66 -19 -16 15 -18 14 -34 -19 -21 -43
-21 -45 -3 -45 8 0 17 9 21 20 5 16 9 18 25 8 15 -10 23 -9 40 7 l21 19 -6
-27 c-5 -20 -3 -27 7 -27 8 0 19 23 29 60 9 33 15 60 15 60 -1 0 -23 -17 -49
-37z"/>
<path d="M1440 785 c0 -104 2 -125 15 -125 11 0 15 11 15 38 0 66 19 69 70 11
31 -35 51 -50 64 -48 16 3 11 13 -32 63 l-51 60 32 39 c71 88 71 87 49 87 -13
0 -39 -23 -69 -59 -26 -33 -51 -60 -55 -60 -5 -1 -8 26 -8 59 0 47 -3 60 -15
60 -13 0 -15 -21 -15 -125z"/>
<path d="M1650 905 c0 -3 14 -42 31 -86 26 -68 29 -84 20 -111 -14 -41 -14
-48 3 -48 15 0 113 236 103 247 -14 13 -33 -8 -51 -56 -10 -28 -21 -51 -25
-51 -4 0 -16 25 -26 55 -14 39 -24 55 -37 55 -10 0 -18 -2 -18 -5z"/>
<path d="M1857 892 c-34 -37 -11 -58 25 -25 15 13 23 15 36 7 28 -18 27 -52
-2 -66 -30 -13 -35 -38 -7 -38 26 0 44 -25 36 -50 -8 -24 -62 -29 -71 -5 -4 8
-12 15 -20 15 -20 0 -17 -27 6 -50 24 -24 67 -26 98 -4 27 19 30 75 5 99 -10
11 -12 19 -6 23 28 19 22 83 -11 104 -21 14 -73 8 -89 -10z"/>
<path d="M2030 785 c0 -118 1 -125 20 -125 16 0 20 7 20 30 0 30 1 30 55 30
54 0 55 0 55 -30 0 -20 5 -30 15 -30 13 0 15 21 15 125 0 104 -2 125 -15 125
-10 0 -15 -10 -15 -30 0 -30 -1 -30 -55 -30 -54 0 -55 0 -55 30 0 23 -4 30
-20 30 -19 0 -20 -7 -20 -125z m150 0 c0 -24 -3 -25 -55 -25 -52 0 -55 1 -55
25 0 24 3 25 55 25 52 0 55 -1 55 -25z"/>
<path d="M2280 785 c0 -115 1 -125 19 -125 12 0 38 30 77 90 33 49 62 90 67
90 4 0 7 -40 7 -90 0 -73 3 -90 15 -90 13 0 15 21 15 126 0 114 -2 125 -17
122 -10 -2 -45 -43 -78 -92 l-60 -88 -3 91 c-2 83 -5 91 -22 91 -19 0 -20 -7
-20 -125z"/>
<path d="M2550 785 l0 -125 90 0 c83 0 90 -1 90 -20 0 -11 7 -20 15 -20 11 0
15 11 15 40 0 29 -4 40 -15 40 -12 0 -15 18 -15 105 0 87 -3 105 -15 105 -12
0 -15 -18 -15 -105 l0 -105 -55 0 -55 0 0 105 c0 98 -1 105 -20 105 -19 0 -20
-7 -20 -125z"/>
<path d="M2829 881 c-28 -28 -29 -33 -29 -125 0 -89 1 -96 20 -96 13 0 20 7
20 20 0 18 7 20 55 20 48 0 55 -2 55 -20 0 -11 7 -20 15 -20 12 0 15 18 15
100 0 94 -2 103 -25 125 -35 36 -88 34 -126 -4z m109 -23 c7 -7 12 -36 12 -65
l0 -53 -55 0 -55 0 0 53 c0 29 5 58 12 65 16 16 70 16 86 0z"/>
<path d="M490 736 l0 -114 29 -10 c37 -13 65 -54 56 -82 -6 -20 -3 -20 205
-20 l212 0 -21 34 c-13 21 -21 50 -21 79 0 61 41 111 108 129 46 13 47 15 50
56 l3 42 -310 0 -311 0 0 -114z"/>
<path d="M250 795 c-11 -13 -8 -21 21 -51 34 -35 110 -77 162 -88 l27 -6 0 80
0 80 -99 0 c-77 0 -101 -3 -111 -15z"/>
<path d="M490 430 l0 -50 311 0 310 0 -3 48 -3 47 -307 3 -308 2 0 -50z"/>
</g>
</svg>
